<svg width="1440" height="398" viewBox="0 0 1440 398" fill="none" xmlns="http://www.w3.org/2000/svg">
<path fill-rule="evenodd" clip-rule="evenodd" d="M0 37.4099L60 49.8799C120 62.3498 240 87.2898 360 81.0548C480 74.8198 600 37.4099 720 43.6449C840 49.8799 960 99.7598 1080 99.7598C1200 99.7598 1320 49.8799 1380 24.9399L1440 0V149.64H1380C1320 149.64 1200 149.64 1080 149.64C960 149.64 840 149.64 720 149.64C600 149.64 480 149.64 360 149.64C240 149.64 120 149.64 60 149.64H0V37.4099Z" fill="#111111"/>
<path fill-rule="evenodd" clip-rule="evenodd" d="M1440 360.59L1380 348.12C1320 335.65 1200 310.71 1080 316.945C960 323.18 840 360.59 720 354.355C600 348.12 480 298.24 360 298.24C240 298.24 120 348.12 60 373.06L0 398L-1.25889e-05 248.36L60 248.36C120 248.36 240 248.36 360 248.36C480 248.36 600 248.36 720 248.36C840 248.36 960 248.36 1080 248.36C1200 248.36 1320 248.36 1380 248.36L1440 248.36L1440 360.59Z" fill="#111111"/>
<rect y="143" width="1440" height="111" fill="#111111"/>
</svg>
