<svg width="200" height="70" viewBox="0 0 200 70" fill="none" xmlns="http://www.w3.org/2000/svg">
<path d="M27.5137 55.957C33.7522 55.957 38.9656 54.7164 42.544 52.2791C38.0915 55.7941 32.3938 57.8993 26.2622 57.8993C22.7341 57.8993 19.4262 57.1976 16.3887 55.9507L27.5137 55.957Z" fill="#0047B0"/>
<path d="M45.254 49.8476C47.0463 47.7361 48.0211 45.0357 47.9645 41.7901C47.9645 34.1149 42.4303 28.9772 35.0472 28.3256C39.6067 27.7867 43.9459 24.2718 43.9459 17.6178C43.9459 14.3723 42.9146 11.8849 41.072 9.94258C48.0148 14.648 52.5742 22.5926 52.5742 31.6212C52.6371 38.7075 49.8134 45.0858 45.254 49.8476Z" fill="#0047B0"/>
<path d="M13.4015 54.4972C5.37066 49.9547 0 41.4148 0 31.6281C0 23.1947 3.96197 15.7325 10.1502 10.9206V52.2228C10.1502 52.2228 20.8412 50.2742 21.1116 43.8458C21.1116 43.4135 21.1116 42.1729 21.1116 42.1729V8.3768H23.1744C28.7651 8.3768 32.4567 11.2965 32.4567 18.5394C32.4567 25.8388 28.1174 28.4327 23.558 28.4327V29.1344C30.0166 29.1344 35.7646 32.4301 35.4942 40.8634C35.2741 49.7417 22.2499 53.2002 13.4015 54.4972Z" fill="#0047B0"/>
<path d="M42.978 3.78475H49.7637V10.5452H42.978V3.78475Z" fill="#FF3F00"/>
<path d="M49.7071 0H52.9647V3.24553H49.7071V0Z" fill="#FF3F00"/>
<path d="M51.009 3.78475H52.9649V5.73333H51.009V3.78475Z" fill="#FF3F00"/>
<path d="M47.2101 0H49.1659V1.94857H47.2101V0Z" fill="#FF3F00"/>
<path d="M63.6832 33.6264V17.1356H72.3681C75.5125 17.1356 77.1413 19.1343 77.1413 21.3523C77.1413 23.4074 75.8396 24.8108 74.2674 25.1366C76.0031 25.4061 77.4684 27.1353 77.4684 29.1904C77.4684 31.6778 75.7892 33.6264 72.6385 33.6264H63.6832ZM73.5567 21.9475C73.5567 20.9199 72.7958 20.1618 71.6009 20.1618H67.205V23.7332H71.6009C72.7958 23.7332 73.5567 23.0314 73.5567 21.9475ZM73.8837 28.708C73.8837 27.6804 73.1228 26.7594 71.7644 26.7594H67.205V30.6002H71.7644C73.0662 30.6002 73.8837 29.8984 73.8837 28.708Z" fill="#0047B0"/>
<path d="M89.4553 33.6264L86.1977 27.7869H83.5941V33.6264H80.066V17.1356H87.8265C91.2979 17.1356 93.3606 19.4037 93.3606 22.4362C93.3606 25.3559 91.518 26.9223 89.7257 27.3546L93.4675 33.6264C93.5241 33.6264 89.4553 33.6264 89.4553 33.6264ZM89.8389 22.4926C89.8389 21.0891 88.7509 20.2746 87.3422 20.2746H83.6507V24.7106H87.3422C88.7509 24.7043 89.8389 23.8397 89.8389 22.4926Z" fill="#0047B0"/>
<path d="M95.2662 25.414C95.2662 20.4392 98.9012 16.8741 103.895 16.8741C108.888 16.8741 112.579 20.4454 112.579 25.414C112.579 30.3825 108.944 33.9538 103.895 33.9538C98.9515 33.9538 95.2662 30.3825 95.2662 25.414ZM108.938 25.414C108.938 22.3313 106.932 20.0068 103.895 20.0068C100.857 20.0068 98.9012 22.3313 98.9012 25.414C98.9012 28.4966 100.857 30.8211 103.895 30.8211C106.982 30.8148 108.938 28.4903 108.938 25.414Z" fill="#0047B0"/>
<path d="M125.654 33.6264L124.622 30.8132H117.516L116.485 33.6264H112.466L118.868 17.1356H123.264L129.666 33.6264H125.654ZM121.094 20.6505L118.491 27.7306H123.648L121.094 20.6505Z" fill="#0047B0"/>
<path d="M131.187 33.6264V17.1356H137.696C142.904 17.1356 146.488 20.4312 146.488 25.4061C146.488 30.3809 142.904 33.6264 137.696 33.6264H131.187ZM142.91 25.4123C142.91 22.4926 141.118 20.2245 137.703 20.2245H134.715V30.55H137.703C141.011 30.5438 142.91 28.2193 142.91 25.4123Z" fill="#0047B0"/>
<path d="M161.198 33.6264L158.267 22.2733L155.393 33.6264H151.651L146.928 17.1356H150.89L153.821 29.0275L156.965 17.1356H159.732L162.877 29.0275L165.751 17.1356H169.713L164.99 33.6264H161.198Z" fill="#0047B0"/>
<path d="M181.656 33.6264L180.625 30.8132H173.518L172.487 33.6264H168.468L174.87 17.1356H179.266L185.668 33.6264H181.656ZM177.097 20.6505L174.493 27.7306H179.65L177.097 20.6505Z" fill="#0047B0"/>
<path d="M190.171 26.8724L183.769 17.1421H187.787L191.913 23.7898L195.981 17.1421H200L193.648 26.8724V33.6329H190.171V26.8724Z" fill="#0047B0"/>
<path d="M64.3175 39.6846H67.028V52.3911H64.3175V39.6846Z" fill="#00C3FF"/>
<path d="M77.4628 52.3848L71.3877 44.1144V52.3848H68.6772V39.6846H71.4443L77.3621 47.6293V39.6846H80.0726V52.3911H77.4628V52.3848Z" fill="#00C3FF"/>
<path d="M81.858 39.6846H90.8636V42.0655H84.5685V44.766H90.7567V47.1469H84.5685V52.3911H81.858V39.6846Z" fill="#00C3FF"/>
<path d="M91.3546 46.0077C91.3546 42.1669 94.1783 39.4665 97.9767 39.4665C101.832 39.4665 104.649 42.2233 104.649 46.0077C104.649 49.8485 101.826 52.5489 97.9767 52.5489C94.1783 52.6053 91.3546 49.8485 91.3546 46.0077ZM101.882 46.0077C101.882 43.6268 100.36 41.8474 98.0271 41.8474C95.6939 41.8474 94.172 43.6331 94.172 46.0077C94.172 48.3886 95.6939 50.168 98.0271 50.168C100.36 50.168 101.882 48.3886 101.882 46.0077Z" fill="#00C3FF"/>
<path d="M104.92 50.55L106.385 48.4949C107.309 49.4159 108.661 50.2242 110.454 50.2242C111.919 50.2242 112.68 49.5225 112.68 48.8207C112.68 46.5526 105.354 48.119 105.354 43.3572C105.354 41.2457 107.196 39.5164 110.183 39.5164C112.189 39.5164 113.875 40.1117 115.12 41.3021L113.598 43.3008C112.567 42.3297 111.208 41.8973 109.907 41.8973C108.768 41.8973 108.114 42.4362 108.114 43.1943C108.114 45.193 115.441 43.8459 115.441 48.6014C115.441 50.9259 113.762 52.6552 110.341 52.6552C107.907 52.6051 106.114 51.7906 104.92 50.55Z" fill="#00C3FF"/>
<path d="M119.843 52.3848V47.197L114.957 39.6846H118.051L121.195 44.766L124.339 39.6846H127.434L122.547 47.197V52.3848H119.843Z" fill="#00C3FF"/>
<path d="M126.572 50.55L128.037 48.4949C128.962 49.4159 130.314 50.2242 132.106 50.2242C133.572 50.2242 134.333 49.5225 134.333 48.8207C134.333 46.5526 127.006 48.119 127.006 43.3572C127.006 41.2457 128.849 39.5164 131.836 39.5164C133.842 39.5164 135.527 40.1117 136.773 41.3021L135.251 43.3008C134.219 42.3297 132.861 41.8973 131.559 41.8973C130.421 41.8973 129.767 42.4362 129.767 43.1943C129.767 45.193 137.093 43.8459 137.093 48.6014C137.093 50.9259 135.414 52.6552 131.993 52.6552C129.559 52.6051 127.767 51.7906 126.572 50.55Z" fill="#00C3FF"/>
<path d="M67.8832 69.9879C66.4784 69.9879 65.2879 69.5027 64.3831 68.6416L65.2403 67.5622C65.9903 68.2535 66.8594 68.6901 67.9309 68.6901C68.9428 68.6901 69.4666 68.1807 69.4666 67.5865C69.4666 66.8951 68.8833 66.6647 67.5737 66.3493C65.8832 65.9491 64.7045 65.4518 64.7045 63.8873C64.7045 62.4319 65.9189 61.3646 67.6451 61.3646C68.9428 61.3646 69.919 61.8133 70.7405 62.5289L69.9309 63.6447C69.2166 63.014 68.3952 62.6623 67.5856 62.6623C66.7641 62.6623 66.2046 63.1717 66.2046 63.7539C66.2046 64.4331 66.8118 64.6756 68.1094 64.9788C69.8119 65.3669 70.9548 65.9249 70.9548 67.4409C70.9548 68.9327 69.8357 69.9879 67.8832 69.9879Z" fill="#0047B0"/>
<path d="M72.7046 62.6381C72.2403 62.6381 71.8712 62.2378 71.8712 61.7891C71.8712 61.3403 72.2403 60.9522 72.7046 60.9522C73.157 60.9522 73.526 61.3403 73.526 61.7891C73.526 62.2378 73.157 62.6381 72.7046 62.6381ZM71.9665 69.8545V63.5841H73.4189V69.8545H71.9665Z" fill="#0047B0"/>
<path d="M78.0838 63.4385C79.4291 63.4385 80.3696 64.4452 80.3696 65.8642V69.8545H78.9648V66.1553C78.9648 65.3063 78.429 64.6999 77.6671 64.6999C76.9052 64.6999 76.2742 65.2214 76.179 65.8885V69.8545H74.7265V63.5841H76.179V64.4209C76.5599 63.8388 77.2742 63.4385 78.0838 63.4385Z" fill="#0047B0"/>
<path d="M84.6132 70C82.8393 70 81.3273 68.4961 81.3273 66.7132C81.3273 64.9303 82.8393 63.4385 84.637 63.4385C85.5656 63.4385 86.3871 63.8388 86.9704 64.4573L85.9942 65.3306C85.6608 64.9546 85.1489 64.6999 84.6251 64.6999C83.6131 64.6999 82.7679 65.6216 82.7679 66.7132C82.7679 67.8169 83.6131 68.7386 84.6251 68.7386C85.1608 68.7386 85.6846 68.484 86.0299 68.0837L87.0061 68.9448C86.4109 69.5876 85.5894 70 84.6132 70Z" fill="#0047B0"/>
<path d="M90.7194 68.6901C91.2908 68.6901 91.9694 68.4233 92.3147 68.0595L93.2314 69.0297C92.6956 69.6119 91.6242 70 90.7313 70C88.9693 70 87.5168 68.6295 87.5168 66.7011C87.5168 64.8212 88.8979 63.4385 90.6479 63.4385C92.5528 63.4385 93.66 64.9061 93.66 67.2226H89.0169C89.1955 68.0837 89.8384 68.6901 90.7194 68.6901ZM90.7074 64.7484C89.8979 64.7484 89.2431 65.2699 89.0288 66.0947H92.267C92.1004 65.3063 91.5765 64.7484 90.7074 64.7484Z" fill="#0047B0"/>
<path d="M97.4334 69.8545V68.6174L100.445 66.1674C101.481 65.3184 101.85 64.6878 101.85 64.0086C101.85 63.2202 101.195 62.7351 100.457 62.7351C99.6001 62.7351 98.981 63.1838 98.3858 63.9115L97.4215 63.0019C98.1953 61.971 99.1834 61.3767 100.505 61.3767C102.124 61.3767 103.362 62.4319 103.362 63.9722C103.362 65.0759 102.862 65.9612 101.457 67.0649L99.743 68.4718H103.446V69.8545H97.4334Z" fill="#0047B0"/>
<path d="M107.952 70C105.845 70 104.357 68.2171 104.357 65.6823C104.357 63.1596 105.845 61.3767 107.952 61.3767C110.047 61.3767 111.524 63.1596 111.524 65.6823C111.524 68.2171 110.047 70 107.952 70ZM107.952 68.6174C109.155 68.6174 110.012 67.4045 110.012 65.6823C110.012 63.96 109.155 62.7593 107.952 62.7593C106.738 62.7593 105.881 63.96 105.881 65.6823C105.881 67.4045 106.738 68.6174 107.952 68.6174Z" fill="#0047B0"/>
<path d="M116.002 70C113.895 70 112.407 68.2171 112.407 65.6823C112.407 63.1596 113.895 61.3767 116.002 61.3767C118.097 61.3767 119.574 63.1596 119.574 65.6823C119.574 68.2171 118.097 70 116.002 70ZM116.002 68.6174C117.205 68.6174 118.062 67.4045 118.062 65.6823C118.062 63.96 117.205 62.7593 116.002 62.7593C114.788 62.7593 113.931 63.96 113.931 65.6823C113.931 67.4045 114.788 68.6174 116.002 68.6174Z" fill="#0047B0"/>
<path d="M123.552 70C121.778 70 120.373 69.1146 120.373 67.635C120.373 66.6283 121.088 65.9006 122.04 65.5489C121.195 65.185 120.588 64.5665 120.588 63.6205C120.588 62.1893 122.016 61.3767 123.552 61.3767C125.135 61.3767 126.528 62.2136 126.528 63.6205C126.528 64.5907 125.897 65.2093 125.076 65.5489C126.04 65.9249 126.743 66.6526 126.743 67.635C126.743 69.1268 125.314 70 123.552 70ZM123.552 65.0031C124.254 64.9667 125.064 64.5422 125.064 63.8145C125.064 63.1596 124.409 62.6623 123.552 62.6623C122.695 62.6623 122.052 63.1596 122.052 63.8145C122.052 64.5543 122.873 64.9667 123.552 65.0031ZM123.552 68.7023C124.505 68.7023 125.243 68.2171 125.243 67.4894C125.243 66.7132 124.314 66.2523 123.552 66.2159C122.802 66.2523 121.862 66.7132 121.862 67.4894C121.862 68.2171 122.588 68.7023 123.552 68.7023Z" fill="#0047B0"/>
</svg>
