<svg width="195" height="37" viewBox="0 0 195 37" fill="none" xmlns="http://www.w3.org/2000/svg">
<path d="M35.4463 28.5075V0.598061H41.1079V28.5075H35.4463Z" fill="black"/>
<path d="M65.24 19.3772H49.5309C49.5309 21.0916 50.0891 22.4472 51.1257 23.4041C52.1624 24.4009 53.4781 24.8793 55.1128 24.8793C56.3887 24.8793 57.4652 24.5603 58.3423 23.9224C59.2195 23.2845 59.8176 22.4073 60.0967 21.3707H65.0406C64.8014 23.0453 64.2033 24.4806 63.2066 25.6369C62.1699 26.833 60.9738 27.7101 59.5385 28.2683C58.1031 28.8664 56.6279 29.1455 55.1128 29.1455C51.6839 29.1455 49.0126 28.1886 47.0589 26.2748C45.0654 24.361 44.1085 21.6498 44.1085 18.1412C44.1085 15.9881 44.5471 14.1142 45.4242 12.4397C46.3014 10.805 47.5374 9.52909 49.1322 8.65194C50.727 7.77478 52.601 7.29634 54.754 7.29634C56.8671 7.29634 58.741 7.77478 60.3359 8.69181C61.9307 9.64871 63.1268 10.8847 63.9641 12.4795C64.8014 14.0744 65.24 15.8287 65.24 17.7425V19.3772ZM51.0859 12.7985C50.129 13.6358 49.6107 14.792 49.5309 16.3071H59.6581C59.5385 14.8319 59.0201 13.6756 58.1031 12.8384C57.1861 12.0011 56.0298 11.5625 54.6344 11.5625C53.199 11.5625 52.0029 12.0011 51.0859 12.7985Z" fill="black"/>
<path d="M69.3442 19.0582C70.6998 18.0216 72.8129 17.5032 75.6039 17.5032C78.1556 17.5431 79.9099 17.3438 80.9465 16.8653C81.9433 16.4267 82.4616 15.6692 82.4616 14.6325C82.4616 13.8351 82.1028 13.1175 81.425 12.4795C80.7073 11.8815 79.6308 11.5625 78.1556 11.5625C76.6006 11.5625 75.4045 12.0011 74.5672 12.7985C73.6901 13.6358 73.2116 14.7522 73.092 16.1078H67.4702C67.55 14.5129 67.9886 13.0377 68.786 11.6821C69.5834 10.3664 70.7795 9.28987 72.3743 8.49246C73.9293 7.69504 75.8431 7.29634 78.1157 7.29634C81.425 7.29634 83.897 8.05388 85.5715 9.56896C87.2062 11.0841 88.0435 12.9978 88.0435 15.3502V28.5075H82.6211L82.4616 22.0884H82.2623C81.9832 24.361 81.1459 26.1153 79.7105 27.3114C78.2752 28.5474 76.4411 29.1455 74.2483 29.1455C72.175 29.1455 70.4605 28.667 69.1847 27.7101C67.9088 26.7532 67.2709 25.3179 67.2709 23.444C67.2709 21.6099 67.9487 20.1347 69.3442 19.0582ZM73.8097 24.7996C74.3679 25.2381 75.1653 25.4375 76.2019 25.4375C77.3183 25.4375 78.3549 25.1983 79.3118 24.6401C80.2687 24.1218 81.0263 23.4041 81.5845 22.5269C82.1427 21.6498 82.4616 20.7328 82.4616 19.736V16.5862H82.2623C82.1028 17.4634 81.8237 18.181 81.425 18.6994C81.0263 19.2575 80.3485 19.6562 79.4713 19.9353C78.5942 20.2543 77.3582 20.4537 75.7633 20.5334C74.8862 20.6131 74.2084 20.8524 73.7299 21.2511C73.2515 21.6897 73.0123 22.2478 73.0123 22.9655C73.0123 23.7629 73.2515 24.361 73.8097 24.7996Z" fill="black"/>
<path d="M109.847 8.65194C111.162 9.52909 112.199 10.805 112.956 12.4397C113.674 14.1142 114.073 16.028 114.073 18.2209C114.073 20.4537 113.674 22.3675 112.956 24.0022C112.199 25.6767 111.162 26.9526 109.847 27.8297C108.531 28.7069 107.016 29.1455 105.341 29.1455C103.587 29.1455 102.032 28.6272 100.676 27.5506C99.3207 26.4741 98.3239 24.8793 97.7657 22.7662H97.5265V35.8438H91.8649V7.93427H97.367L97.5265 13.7155H97.7657C98.3239 11.6024 99.3207 10.0075 100.676 8.93103C102.032 7.85453 103.587 7.29634 105.341 7.29634C107.016 7.29634 108.531 7.77478 109.847 8.65194ZM106.896 23.3642C107.853 22.1282 108.371 20.4138 108.371 18.2209C108.371 16.0679 107.853 14.3534 106.896 13.1175C105.899 11.8815 104.584 11.2435 102.949 11.2435C101.314 11.2435 99.9985 11.8017 99.0017 12.8782C98.005 13.9946 97.5265 15.3502 97.5265 17.0248V19.4569C97.5265 21.1315 98.005 22.4871 99.0017 23.5636C99.9985 24.68 101.314 25.1983 102.949 25.1983C104.584 25.1983 105.899 24.6002 106.896 23.3642Z" fill="black"/>
<path d="M124.811 5.06358C124.333 5.46229 124.133 6.14008 124.133 7.13685V7.93427H130.313V11.4429H124.253V28.5075H118.591V11.4429H114.804V7.93427H118.591V7.13685C118.591 4.70474 119.189 2.91056 120.465 1.75431C121.741 0.59806 123.735 0 126.446 0C127.482 0 128.758 0.0398699 130.313 0.0797401V4.58513C128.878 4.54526 127.881 4.50539 127.403 4.50539C126.127 4.50539 125.25 4.70474 124.811 5.06358Z" fill="black"/>
<path d="M138.843 15.8287C139.162 13.7554 139.601 12.1207 140.239 10.9246C140.837 9.76832 141.714 8.93103 142.87 8.37285C144.027 7.85453 145.621 7.57543 147.655 7.57543V12.3599C145.422 12.5194 143.668 12.7985 142.432 13.2769C141.156 13.7554 140.239 14.5129 139.641 15.5496C139.003 16.5862 138.684 18.1013 138.604 20.0151V28.5075H132.943V7.93427H138.445L138.604 15.8287H138.843Z" fill="black"/>
<path d="M153.805 27.8297C152.09 26.9526 150.735 25.6369 149.738 23.9623C148.741 22.2877 148.263 20.3739 148.263 18.1412C148.263 15.9881 148.741 14.1142 149.738 12.4397C150.735 10.805 152.09 9.52909 153.805 8.65194C155.519 7.77478 157.433 7.29634 159.506 7.29634C161.58 7.29634 163.454 7.77478 165.168 8.65194C166.843 9.52909 168.198 10.805 169.195 12.4397C170.192 14.1142 170.71 15.9881 170.71 18.1412C170.71 20.3739 170.192 22.2877 169.235 23.9623C168.238 25.6369 166.883 26.9526 165.168 27.8297C163.454 28.7069 161.58 29.1455 159.506 29.1455C157.433 29.1455 155.519 28.7069 153.805 27.8297ZM163.493 23.125C164.45 22.0086 164.969 20.3341 164.969 18.1412C164.969 16.028 164.45 14.3933 163.493 13.2769C162.537 12.1606 161.181 11.6024 159.506 11.6024C157.752 11.6024 156.396 12.1606 155.44 13.2769C154.483 14.3933 154.004 16.028 154.004 18.1412C154.004 20.3341 154.483 22.0086 155.44 23.125C156.396 24.2812 157.752 24.8394 159.506 24.8394C161.181 24.8394 162.537 24.2812 163.493 23.125Z" fill="black"/>
<path d="M194.095 8.77155L186.799 7.49569L186.759 7.77478C188.314 8.17349 189.589 8.93104 190.546 10.0474C191.503 11.1638 192.022 12.4795 192.022 14.0345C192.022 16.1875 191.184 17.8621 189.589 19.0981C187.955 20.3341 185.722 20.9321 182.851 20.9321C181.735 20.9321 180.658 20.8524 179.662 20.6131C179.024 20.8125 178.585 21.0517 178.346 21.2909C178.107 21.57 177.987 21.9289 177.987 22.3276C177.987 22.8459 178.186 23.2446 178.665 23.5636C179.104 23.8825 179.741 24.0022 180.539 24.0022H186.2C188.752 24.0022 190.666 24.5205 191.982 25.4774C193.297 26.4741 193.975 28.1088 193.975 30.3416C193.975 32.5744 193.058 34.209 191.224 35.3254C189.39 36.4418 186.719 37 183.17 37C179.343 37 176.632 36.6412 175.037 35.8438C173.402 35.0463 172.605 33.8502 172.605 32.2554C172.605 30.0226 174.439 28.7069 178.186 28.3879V28.2284C176.592 28.069 175.356 27.6304 174.518 26.9127C173.681 26.195 173.282 25.3578 173.282 24.361C173.282 23.125 173.761 22.208 174.718 21.57C175.675 20.9321 176.99 20.6131 178.665 20.5334V20.3739C177.03 19.8955 175.794 19.0981 174.917 17.9817C174.04 16.9052 173.641 15.5894 173.641 14.0345C173.641 12.2403 174.279 10.7651 175.555 9.60884C176.831 8.45259 178.984 7.57543 182.094 7.01724C186.041 6.29957 190.028 5.46229 194.095 4.54526V8.77155ZM185.762 12.0409C185.044 11.5226 184.087 11.2435 182.851 11.2435C181.575 11.2435 180.619 11.5226 179.941 12.0409C179.223 12.5593 178.904 13.2371 178.904 14.0345C178.904 14.9116 179.223 15.6293 179.941 16.1875C180.619 16.7457 181.575 16.9849 182.851 16.9849C184.087 16.9849 185.044 16.7457 185.762 16.1875C186.44 15.6293 186.799 14.9116 186.799 14.0345C186.799 13.2371 186.44 12.5593 185.762 12.0409ZM179.343 28.2683C178.067 28.7069 177.469 29.4644 177.469 30.5011C177.469 31.2985 177.907 31.9364 178.824 32.3351C179.702 32.7737 181.177 32.9731 183.17 32.9731C185.244 32.9731 186.679 32.7737 187.556 32.375C188.433 31.9763 188.872 31.2985 188.872 30.4213C188.872 29.6638 188.593 29.1056 188.114 28.7468C187.596 28.4278 186.799 28.2284 185.682 28.2284L179.343 28.2683Z" fill="black"/>
<path fill-rule="evenodd" clip-rule="evenodd" d="M0 28.2139C0 12.9942 12.3448 0.65625 27.5729 0.65625H29.903V9.19524H27.5729C17.0634 9.19524 8.54372 17.7102 8.54372 28.2139H0Z" fill="#038E43"/>
</svg>
