<svg xmlns="http://www.w3.org/2000/svg" width="160" height="39.755" viewBox="0 0 160 39.755">
  <g id="Group_646" data-name="Group 646" transform="translate(-480 -320.245)">
    <path id="Path_1" data-name="Path 1" d="M579.605,343.677V355.07h-6.573v-9.932a26.275,26.275,0,0,0-.146-2.665c-.219-1.863-1.1-2.958-2.812-2.958-2.118,0-2.957,1.935-2.957,5.258v10.3h-6.573v-9.932a26.257,26.257,0,0,0-.146-2.665c-.219-1.863-1.1-2.958-2.812-2.958-2.118,0-2.958,1.935-2.958,5.258v10.3h-6.572v-19.5h6.572v3.14l1.571-2.52a7.489,7.489,0,0,1,4.2-1.132c3.323,0,5.4,1.644,6.244,3.8l2.045-2.666a7.486,7.486,0,0,1,4.2-1.132c3.907,0,6.1,2.263,6.536,4.929A25.591,25.591,0,0,1,579.605,343.677Z" transform="translate(-34.034 -7.412)" fill="#111"/>
    <path id="Path_2" data-name="Path 2" d="M637.621,355.58h-6.572v-3.286L629.3,354.96a8.125,8.125,0,0,1-4.381,1.132c-4.017,0-6.464-2.263-6.9-4.929a25.669,25.669,0,0,1-.183-3.688V336.082H624.4v9.932a26.305,26.305,0,0,0,.146,2.666c.219,1.862,1.1,2.957,3.177,2.957s3.323-1.935,3.323-4.527V336.082h6.572Z" transform="translate(-68.921 -7.924)" fill="#111"/>
    <path id="Path_3" data-name="Path 3" d="M684.662,348.25h-6.573V345.4l-1.46,2.154a8.918,8.918,0,0,1-4.966,1.2c-5.294,0-8.581-4.053-8.581-9.822,0-6.937,4.236-10.7,9.239-10.7a10.118,10.118,0,0,1,4.491.949l1.278,2.081v-9.858h6.573Zm-6.573-9.494v-.84c0-3.907-2.008-5.221-3.98-5.221-2.556,0-4.308,1.935-4.308,5.915,0,3.651,1.826,5.7,4.126,5.7C676.337,344.307,678.089,342.847,678.089,338.757Z" transform="translate(-91.55 -0.584)" fill="#111"/>
    <path id="Path_4" data-name="Path 4" d="M720.672,323.458a3.4,3.4,0,1,1-3.4-3.213A3.1,3.1,0,0,1,720.672,323.458Zm-6.682,24.209v-19.5h6.573v19.5Z" transform="translate(-116.944)" fill="#111"/>
    <path id="Path_5" data-name="Path 5" d="M741.219,342.624c0,.657,0,1.388.036,1.9.146,1.971.767,2.41,3.87,2.264v4.09a22.177,22.177,0,0,1-3.87.328c-4.857,0-6.317-1.5-6.536-4.491-.073-1.132-.073-2.044-.073-3.14V335.43h-3.1v-4.089h3.1V326.3h6.572v5.039h4.308v4.089h-4.308Z" transform="translate(-125.794 -3.027)" fill="#111"/>
    <path id="Path_6" data-name="Path 6" d="M774.428,352.222l-.8,2.044a8.92,8.92,0,0,1-4.819,1.314c-3.214,0-6.245-2.008-6.245-5.769,0-4.162,3.944-6.718,10.553-6.718h1.242V342.8a10.755,10.755,0,0,0-.074-1.424,2.154,2.154,0,0,0-2.337-1.862c-1.534,0-2.41.986-2.52,2.665l-6.207.037c.036-4.564,4.089-7.157,9.019-7.157,6.17,0,8.288,2.739,8.581,6.28.073.986.11,2.118.11,3.323v5.477a33.615,33.615,0,0,0,.365,4.929h-6.426Zm-.072-4.127v-1.278c-2.958-.219-5.076.548-5.076,2.483,0,1.168.913,1.825,2.227,1.825A2.868,2.868,0,0,0,774.356,348.1Z" transform="translate(-141.293 -7.413)" fill="#111"/>
    <g id="Group_1" data-name="Group 1" transform="translate(480 320.245)">
      <path id="Path_7" data-name="Path 7" d="M508.581,340.384c-1.091-6.391-6.466-9.425-8.517-16.02l-1.278-4.119a64.965,64.965,0,0,1-4.755,11.046c-.088.149-.18.309-.269.462a24.773,24.773,0,0,1-4.109-7.389l-1.277-4.119a64.943,64.943,0,0,1-4.755,11.046c-2.65,4.468-6.131,10.912-.935,16.887h5.791c-8.516-9.256-2.679-17.569-2.679-17.569s5.43,7.815,7.228,11.06a7.2,7.2,0,0,1,0,6.51s6.235-1.4,5.144-7.794a16.814,16.814,0,0,0-3.244-7.024,11.382,11.382,0,0,1,1.282-2.751s5.43,7.815,7.228,11.06a7.2,7.2,0,0,1,0,6.51S509.671,346.775,508.581,340.384Z" transform="translate(-480 -320.245)" fill="#bd2b26"/>
    </g>
    <circle id="Ellipse_1" data-name="Ellipse 1" cx="1.714" cy="1.714" r="1.714" transform="translate(480 322.697)" fill="#bd2b26"/>
    <g id="Group_2" data-name="Group 2" transform="translate(608.266 351.423)">
      <path id="Path_8" data-name="Path 8" d="M742.609,387.766h-2.226c-.1-.465-.328-.729-.73-.729a.5.5,0,0,0-.54.491c0,.377.3.628,1.585.943,1.219.3,2.087.83,2.087,2.125,0,1.433-1.345,2.1-2.968,2.1-1.823,0-3.068-.755-3.244-2.263H738.8a1.051,1.051,0,0,0,1.006.855c.4,0,.717-.164.717-.516,0-.427-.428-.666-1.623-.943-1.283-.3-2.05-.893-2.05-2.038,0-1.332,1.157-2.162,2.943-2.162A2.559,2.559,0,0,1,742.609,387.766Z" transform="translate(-736.573 -384.12)" fill="#111"/>
      <path id="Path_9" data-name="Path 9" d="M752.854,388.234c0,.227,0,.478.012.654.051.679.264.83,1.333.78v1.408a7.665,7.665,0,0,1-1.333.113c-1.672,0-2.175-.516-2.25-1.547-.025-.39-.025-.7-.025-1.082v-2.8h-1.069v-1.408h1.069v-1.736h2.263v1.736h1.483v1.408h-1.483Z" transform="translate(-743.043 -382.612)" fill="#111"/>
      <path id="Path_10" data-name="Path 10" d="M767.12,389.163a3.61,3.61,0,1,1-3.609-3.534A3.341,3.341,0,0,1,767.12,389.163Zm-2.313,0c0-1.345-.49-2-1.3-2s-1.3.655-1.3,2,.491,2,1.3,2S764.806,390.5,764.806,389.163Z" transform="translate(-748.229 -384.12)" fill="#111"/>
      <path id="Path_11" data-name="Path 11" d="M780.871,385.666v1.849c-1.7-.113-2.313.515-2.313,2.541v2.465h-2.264v-6.715h2.264v1.357l.477-.943a1.843,1.843,0,0,1,1.321-.591A3.1,3.1,0,0,1,780.871,385.666Z" transform="translate(-756.42 -384.12)" fill="#111"/>
      <path id="Path_12" data-name="Path 12" d="M793.016,389.728h-4.678c.113,1.119.6,1.434,1.244,1.434a1.014,1.014,0,0,0,1.119-.842h2.226a3.193,3.193,0,0,1-3.371,2.377,3.234,3.234,0,0,1-3.458-3.509,3.419,3.419,0,0,1,3.584-3.559,3.275,3.275,0,0,1,3.371,3.446A6.068,6.068,0,0,1,793.016,389.728Zm-4.6-1.383h2.276c-.126-.792-.515-1.182-1.119-1.182S788.564,387.515,788.413,388.345Z" transform="translate(-761.32 -384.12)" fill="#111"/>
    </g>
  </g>
</svg>
