<svg width="2006" height="318" viewBox="0 0 2006 318" fill="none" xmlns="http://www.w3.org/2000/svg">
<path fill-rule="evenodd" clip-rule="evenodd" d="M2006 42.5555L1950.84 54.1C1894 65.6444 1783.67 88.7333 1671.67 73.3408C1559.67 57.9482 1449.34 4.0741 1337.33 0.225962C1225.33 -3.62217 1115 42.5556 1003 73.3408C890.998 104.126 780.668 119.519 668.667 115.671C556.665 111.822 446.335 88.7335 334.333 69.4928C222.332 50.252 112.002 34.8595 55.165 27.1632L-3.74553e-05 19.4669L-3.68936e-06 158L55.165 158C112.002 158 222.332 158 334.333 158C446.335 158 556.665 158 668.667 158C780.668 158 890.998 158 1003 158C1115 158 1225.33 158 1337.33 158C1449.34 158 1559.67 158 1671.67 158C1783.67 158 1894 158 1950.84 158L2006 158L2006 42.5555Z" fill="#FFCD29"/>
<path fill-rule="evenodd" clip-rule="evenodd" d="M-3.72032e-06 267.444L55.165 255.9C112.002 244.356 222.332 221.267 334.333 236.659C446.335 252.052 556.665 305.926 668.667 309.774C780.668 313.622 890.998 267.444 1003 236.659C1115 205.874 1225.33 190.481 1337.33 194.33C1449.33 198.178 1559.66 221.267 1671.67 240.507C1783.67 259.748 1894 275.141 1950.84 282.837L2006 290.533L2006 152L1950.84 152C1894 152 1783.67 152 1671.67 152C1559.66 152 1449.33 152 1337.33 152C1225.33 152 1115 152 1003 152C890.998 152 780.668 152 668.667 152C556.665 152 446.335 152 334.333 152C222.332 152 112.002 152 55.165 152L-1.38128e-05 152L-3.72032e-06 267.444Z" fill="#FFCD29"/>
<path fill-rule="evenodd" clip-rule="evenodd" d="M0 53.5555L55.165 65.1C112.002 76.6444 222.332 99.7333 334.333 84.3407C446.335 68.9481 556.665 15.074 668.667 11.2259C780.668 7.37773 890.998 53.5555 1003 84.3407C1115 115.126 1225.33 130.519 1337.33 126.67C1449.33 122.822 1559.66 99.7333 1671.67 80.4926C1783.67 61.2518 1894 45.8592 1950.83 38.1629L2006 30.4666V169H1950.83C1894 169 1783.67 169 1671.67 169C1559.66 169 1449.33 169 1337.33 169C1225.33 169 1115 169 1003 169C890.998 169 780.668 169 668.667 169C556.665 169 446.335 169 334.333 169C222.332 169 112.002 169 55.165 169H0V53.5555Z" fill="#208820"/>
<path fill-rule="evenodd" clip-rule="evenodd" d="M2006 275.444L1950.84 263.9C1894 252.356 1783.67 229.267 1671.67 244.659C1559.67 260.052 1449.34 313.926 1337.33 317.774C1225.33 321.622 1115 275.444 1003 244.659C890.998 213.874 780.668 198.481 668.667 202.33C556.665 206.178 446.335 229.267 334.333 248.507C222.332 267.748 112.002 283.141 55.1651 290.837L5.57781e-05 298.533L7.26611e-05 160L55.1651 160C112.002 160 222.332 160 334.333 160C446.335 160 556.665 160 668.667 160C780.668 160 890.998 160 1003 160C1115 160 1225.33 160 1337.33 160C1449.34 160 1559.67 160 1671.67 160C1783.67 160 1894 160 1950.84 160L2006 160L2006 275.444Z" fill="#208820"/>
</svg>
